<svg width="22" height="17" viewBox="0 0 22 17" fill="none" xmlns="http://www.w3.org/2000/svg">
<path d="M18.27 1.33C16.94 0.71 15.5 0.26 14 2.21822e-07C13.9868 -0.000420381 13.9738 0.0020477 13.9617 0.00723098C13.9496 0.0124143 13.9388 0.0201869 13.93 0.0300004C13.75 0.36 13.54 0.79 13.4 1.12C11.809 0.88 10.191 0.88 8.6 1.12C8.46 0.78 8.25 0.36 8.06 0.0300004C8.05 0.0100004 8.02 2.21822e-07 7.99 2.21822e-07C6.49 0.26 5.06 0.71 3.72 1.33C3.71 1.33 3.7 1.34 3.69 1.35C0.969995 5.42 0.219995 9.38 0.589995 13.3C0.589995 13.32 0.599995 13.34 0.619995 13.35C2.42 14.67 4.15 15.47 5.86 16C5.89 16.01 5.92 16 5.93 15.98C6.33 15.43 6.69 14.85 7 14.24C7.02 14.2 7 14.16 6.96 14.15C6.39 13.93 5.85 13.67 5.32 13.37C5.28 13.35 5.28 13.29 5.31 13.26C5.42 13.18 5.53 13.09 5.64 13.01C5.66 12.99 5.69 12.99 5.71 13C9.15 14.57 12.86 14.57 16.26 13C16.28 12.99 16.31 12.99 16.33 13.01C16.44 13.1 16.55 13.18 16.66 13.27C16.7 13.3 16.7 13.36 16.65 13.38C16.13 13.69 15.58 13.94 15.01 14.16C14.97 14.17 14.96 14.22 14.97 14.25C15.29 14.86 15.65 15.44 16.04 15.99C16.07 16 16.1 16.01 16.13 16C17.85 15.47 19.58 14.67 21.38 13.35C21.4 13.34 21.41 13.32 21.41 13.3C21.85 8.77 20.68 4.84 18.31 1.35C18.3 1.34 18.29 1.33 18.27 1.33ZM7.52 10.91C6.49 10.91 5.63 9.96 5.63 8.79C5.63 7.62 6.47 6.67 7.52 6.67C8.58 6.67 9.42 7.63 9.41 8.79C9.41 9.96 8.57 10.91 7.52 10.91ZM14.49 10.91C13.46 10.91 12.6 9.96 12.6 8.79C12.6 7.62 13.44 6.67 14.49 6.67C15.55 6.67 16.39 7.63 16.38 8.79C16.38 9.96 15.55 10.91 14.49 10.91Z" fill="white"/>
</svg>
