<svg width="28" height="28" viewBox="0 0 28 28" fill="none" xmlns="http://www.w3.org/2000/svg">
<path d="M25.375 23.4062L18.5894 16.6195C19.6829 15.1168 20.2712 13.3057 20.2694 11.4472C20.2694 6.58273 16.3116 2.625 11.4472 2.625C6.58273 2.625 2.625 6.58273 2.625 11.4472C2.625 16.3116 6.58273 20.2694 11.4472 20.2694C13.3057 20.2712 15.1168 19.6829 16.6195 18.5894L23.4062 25.375L25.375 23.4062ZM11.4472 17.483C10.2533 17.4832 9.0861 17.1292 8.09333 16.466C7.10057 15.8027 6.32678 14.86 5.86983 13.7569C5.41288 12.6539 5.2933 11.4401 5.5262 10.2691C5.75909 9.09813 6.33402 8.0225 7.17826 7.17826C8.0225 6.33402 9.09813 5.75909 10.2691 5.5262C11.4401 5.2933 12.6539 5.41288 13.7569 5.86983C14.86 6.32678 15.8027 7.10057 16.466 8.09333C17.1292 9.0861 17.4832 10.2533 17.483 11.4472C17.4812 13.0474 16.8446 14.5816 15.7131 15.7131C14.5816 16.8446 13.0474 17.4812 11.4472 17.483Z" fill="white"/>
</svg>
