<svg width="20" height="20" viewBox="0 0 20 20" fill="none" xmlns="http://www.w3.org/2000/svg">
<path d="M10 0C11.3132 0 12.6136 0.258658 13.8268 0.761205C15.0401 1.26375 16.1425 2.00035 17.0711 2.92893C17.9997 3.85752 18.7362 4.95991 19.2388 6.17317C19.7413 7.38642 20 8.68678 20 10C20 12.6522 18.9464 15.1957 17.0711 17.0711C15.1957 18.9464 12.6522 20 10 20C5.4 20 1.55 16.92 0.36 12.73L4.19 14.31C4.32176 14.9503 4.67016 15.5257 5.17652 15.9391C5.68289 16.3526 6.31627 16.5789 6.97 16.58C8.53 16.58 9.8 15.31 9.8 13.75V13.62L13.2 11.19H13.28C15.36 11.19 17.05 9.5 17.05 7.42C17.05 5.34 15.36 3.65 13.28 3.65C11.2 3.65 9.5 5.34 9.5 7.42V7.47L7.13 10.93L6.97 10.92C6.38 10.92 5.83 11.1 5.38 11.41L0 9.2C0.43 4.05 4.73 0 10 0ZM6.28 15.17C7.08 15.5 8 15.13 8.33 14.33C8.66 13.53 8.28 12.62 7.5 12.29L6.22 11.76C6.71 11.58 7.26 11.57 7.78 11.79C8.31 12 8.72 12.41 8.93 12.94C9.15 13.46 9.15 14.04 8.93 14.56C8.5 15.64 7.23 16.16 6.15 15.71C5.65 15.5 5.27 15.12 5.06 14.67L6.28 15.17ZM15.8 7.42C15.8 8.81 14.67 9.94 13.28 9.94C12.6134 9.93735 11.975 9.67069 11.5046 9.19838C11.0341 8.72608 10.77 8.08662 10.77 7.42C10.7687 7.09001 10.8327 6.76303 10.9584 6.4579C11.084 6.15278 11.2689 5.87555 11.5022 5.64221C11.7356 5.40887 12.0128 5.22404 12.3179 5.09837C12.623 4.9727 12.95 4.90868 13.28 4.91C13.9466 4.90999 14.5861 5.17412 15.0584 5.64455C15.5307 6.11498 15.7974 6.75339 15.8 7.42ZM11.4 7.42C11.4 8.46 12.24 9.31 13.29 9.31C14.33 9.31 15.17 8.46 15.17 7.42C15.17 6.38 14.33 5.53 13.29 5.53C12.24 5.53 11.4 6.38 11.4 7.42Z" fill="white"/>
</svg>
