<svg width="20" height="14" viewBox="0 0 20 14" fill="none" xmlns="http://www.w3.org/2000/svg">
<path d="M17 7H15C15.0018 6.00979 14.7095 5.04136 14.1602 4.21746C13.6109 3.39357 12.8294 2.75133 11.9146 2.37215C10.9999 1.99298 9.99318 1.89395 9.02209 2.08762C8.05101 2.28128 7.1593 2.75893 6.46 3.46L5.05 2.05C6.02897 1.07093 7.2763 0.404161 8.63423 0.134023C9.99216 -0.136116 11.3997 0.00250852 12.6789 0.532364C13.958 1.06222 15.0513 1.9595 15.8204 3.11074C16.5896 4.26198 17.0001 5.61545 17 7ZM14.95 11.95C13.971 12.9291 12.7237 13.5958 11.3658 13.866C10.0078 14.1361 8.60029 13.9975 7.32115 13.4676C6.042 12.9378 4.94872 12.0405 4.17955 10.8893C3.41039 9.73802 2.9999 8.38454 3 7H5C4.99823 7.9902 5.29051 8.95864 5.8398 9.78253C6.38908 10.6064 7.17063 11.2487 8.08537 11.6278C9.0001 12.007 10.0068 12.106 10.9779 11.9124C11.949 11.7187 12.8407 11.2411 13.54 10.54L14.95 11.95ZM0 7L4 3L8 7L0 7ZM12 7L20 7L16 11L12 7Z" fill="white"/>
</svg>
